<svg width="171" height="53" viewBox="0 0 171 53" fill="none" xmlns="http://www.w3.org/2000/svg">
<path d="M79.2793 24.864L80.2136 24.5074L79.2793 24.864ZM77.9734 4.89415L77.525 4.00031L77.9734 4.89415ZM169.056 52.1747C168.956 52.718 168.435 53.0777 167.892 52.9783L159.039 51.3573C158.496 51.2578 158.136 50.7367 158.236 50.1935C158.335 49.6502 158.856 49.2905 159.4 49.39L167.269 50.8309L168.71 42.9617C168.809 42.4184 169.33 42.0587 169.873 42.1582C170.417 42.2576 170.776 42.7787 170.677 43.3219L169.056 52.1747ZM0.746418 23.5306C11.6198 15.261 28.9162 9.09842 44.7063 8.13659C60.4198 7.17941 75.2014 11.3737 80.2136 24.5074L78.3451 25.2205C73.8331 13.3976 60.3484 9.18747 44.8279 10.1329C29.3839 11.0736 12.4785 17.1206 1.95714 25.1226L0.746418 23.5306ZM80.2136 24.5074C81.8319 28.748 82.494 32.0064 82.4025 34.4068C82.3105 36.8189 81.4332 38.5572 79.7892 39.3379C78.2244 40.081 76.3052 39.7807 74.5016 38.9808C72.6646 38.1661 70.7586 36.756 69.0706 34.9536C65.7054 31.3605 63.0375 26.0181 63.6595 20.3018C64.2884 14.5232 68.2429 8.65672 77.525 4.00031L78.4218 5.78798C69.5456 10.2408 66.1818 15.6114 65.6478 20.5181C65.107 25.4871 67.4318 30.278 70.5303 33.5864C72.0741 35.2348 73.7677 36.4675 75.3125 37.1526C76.8907 37.8525 78.1354 37.9092 78.9312 37.5313C79.6478 37.191 80.3277 36.3303 80.4039 34.3306C80.4806 32.319 79.922 29.3527 78.3451 25.2205L80.2136 24.5074ZM77.525 4.00031C88.7858 -1.64865 103.964 -0.915566 120.098 6.74484C136.246 14.412 153.447 29.0535 168.895 51.4264L167.249 52.5628C151.956 30.4135 135.007 16.0376 119.24 8.55154C103.459 1.0587 88.9576 0.502684 78.4218 5.78798L77.525 4.00031Z" fill="#FBFBFC"/>
</svg>
