<svg width="32" height="32" viewBox="0 0 32 32" fill="none" xmlns="http://www.w3.org/2000/svg">
<path d="M27.0625 32C26.3721 32 25.8125 31.4404 25.8125 30.75C25.8125 25.8563 21.8312 21.875 16.9375 21.875H15.0625C10.1688 21.875 6.1875 25.8563 6.1875 30.75C6.1875 31.4404 5.62787 32 4.9375 32C4.24713 32 3.6875 31.4404 3.6875 30.75C3.6875 24.4778 8.79031 19.375 15.0625 19.375H16.9375C23.2097 19.375 28.3125 24.4778 28.3125 30.75C28.3125 31.4404 27.7529 32 27.0625 32Z" fill="#19191C"/>
<path d="M15.875 16.875C11.2226 16.875 7.4375 13.0899 7.4375 8.4375C7.4375 3.78506 11.2226 0 15.875 0C20.5274 0 24.3125 3.78506 24.3125 8.4375C24.3125 13.0899 20.5274 16.875 15.875 16.875ZM15.875 2.5C12.6011 2.5 9.9375 5.16356 9.9375 8.4375C9.9375 11.7114 12.6011 14.375 15.875 14.375C19.1489 14.375 21.8125 11.7114 21.8125 8.4375C21.8125 5.16356 19.1489 2.5 15.875 2.5Z" fill="#19191C"/>
</svg>
